<mxfile host="app.diagrams.net" modified="2023-10-30T12:07:34.075Z" agent="Mozilla/5.0 (Windows NT 10.0; Win64; x64) AppleWebKit/537.36 (KHTML, like Gecko) Chrome/118.0.0.0 Safari/537.36 Edg/118.0.2088.76" version="21.7.1" etag="a8HBhc0qJDa1KBVOg0cP" type="github">
  <diagram name="Page-1" id="bp-OBkmUOG-0lzantgeh">
    <mxGraphModel>
      <root>
        <mxCell id="0" />
        <mxCell id="1" parent="0" />
      </root>
    </mxGraphModel>
  </diagram>
</mxfile>
